<svg width="25" height="30" viewBox="0 0 25 30" fill="none" xmlns="http://www.w3.org/2000/svg">
<path fill-rule="evenodd" clip-rule="evenodd" d="M16.8382 0C21.7195 0 24.5199 2.41618 24.5199 6.62541V27.5435C24.5199 28.4214 24.068 29.2114 23.3082 29.6532C22.5513 30.0964 21.6389 30.1051 20.8733 29.6733L12.2966 24.828L3.64063 29.6834C3.26647 29.8935 2.85634 30 2.44477 30C2.02025 30 1.59573 29.8863 1.21006 29.6589C0.45168 29.2172 -0.000183105 28.4271 -0.000183105 27.5507V6.36207C-0.000183105 2.31832 2.80166 0 7.68725 0H16.8382ZM16.8382 2.15858H7.68725C4.0191 2.15858 2.1584 3.57174 2.1584 6.36207V27.5507C2.1584 27.686 2.23611 27.7594 2.30087 27.7968C2.36563 27.8371 2.4678 27.8659 2.5858 27.7997L11.7699 22.6479C12.098 22.4651 12.4995 22.4637 12.829 22.6493L21.9339 27.7925C22.0534 27.8616 22.1555 27.8299 22.2203 27.791C22.285 27.7522 22.3613 27.6788 22.3613 27.5435L22.3608 6.46143C22.3499 5.22287 22.1103 2.15858 16.8382 2.15858ZM17.4697 9.68269C18.0654 9.68269 18.549 10.1662 18.549 10.762C18.549 11.3577 18.0654 11.8413 17.4697 11.8413H6.93866C6.34289 11.8413 5.85937 11.3577 5.85937 10.762C5.85937 10.1662 6.34289 9.68269 6.93866 9.68269H17.4697Z" fill="#2F2F2F"/>
</svg>
